:SAMPLES-PER-SECOND 30
:FULLY-SPECIFIED
:DEGREES
549
root  32.2334 38.7701 -3.60738 15.0065 80.0235 20.9305
RightUpLeg  -17.9314 3.31973 -6.06862
RightLeg  30.114 1.5978 0.825397
RightFoot  -2.537 -0.584227 7.35362
RightToes  -6.40286e-010 0 -3.6325e-017
Spine  5.86572 0.407983 -3.51453
Spine1  9.55034 0.884344 -3.79904
HEad  -16.2827 2.64685 -1.25511
LeftShoulder1  -0.543447 4.91445 -32.3889
LeftArm  0.686723 -3.34246 -42.2674
LeftForeArm  31.5279 -11.3632 -8.65174
LeftHand  -0.0242296 7.81863 0.836143
RightShoulder  -0.706262 -5.41484 30.2628
RightArm  17.9398 -16.6169 44.9398
RightForeArm  22.9574 7.96488 8.20272
RightHand  0.0280233 3.03368 0.1652
LeftUpLeg  4.50394 6.57734 -5.64569
LeftLeg  13.8375 4.92652 -0.202105
LeftFoot  -12.6966 0.136454 5.08209
LeftToes  1.32783e-010 1.73515e-011 1.59258e-011
550
root  33.1259 38.702 -3.60524 18.0037 80.1206 23.5053
RightUpLeg  -17.8735 2.76651 -5.99384
RightLeg  18.6855 1.98636 0.306414
RightFoot  -2.3926 -0.570561 7.07265
RightToes  -6.40286e-010 0 -3.6325e-017
Spine  6.18829 0.332281 -3.56609
Spine1  8.44726 0.810038 -3.35822
HEad  -15.1233 2.16871 -0.489417
LeftShoulder1  -0.538726 4.89011 -32.714
LeftArm  4.31589 -5.79226 -42.5076
LeftForeArm  27.923 -13.3536 -8.34811
LeftHand  0.0157611 8.22305 2.30144
RightShoulder  -0.642067 -5.26247 29.7722
RightArm  16.8567 -19.2252 44.7037
RightForeArm  24.7063 7.61774 7.86569
RightHand  0.0777867 3.25051 0.864207
LeftUpLeg  5.86855 6.22375 -6.37445
LeftLeg  13.0494 5.05864 -0.066048
LeftFoot  -13.5272 0.181163 5.22132
LeftToes  1.32783e-010 1.73515e-011 1.59258e-011
551
root  34.097 38.6093 -3.58517 21.9918 80.3466 27.3108
RightUpLeg  -17.1335 -1.69268 -4.99777
RightLeg  7.87825 6.04413 -0.00469349
RightFoot  -2.34802 -0.588359 7.27332
RightToes  -6.40286e-010 0 -3.6325e-017
Spine  5.82257 0.238239 -3.6271
Spine1  8.65416 0.730346 -2.9562
HEad  -13.9716 1.67729 -0.433211
LeftShoulder1  -0.550185 4.93068 -32.4106
LeftArm  8.15307 -7.83025 -43.4291
LeftForeArm  23.6703 -15.9499 -7.31083
LeftHand  0.0518542 8.57516 3.34853
RightShoulder  -0.665398 -5.31932 29.9267
RightArm  16.7195 -20.9019 44.1411
RightForeArm  24.5475 7.74665 7.76184
RightHand  -0.0572817 3.96759 -1.00446
LeftUpLeg  7.97104 6.18204 -6.88668
LeftLeg  11.6713 4.69173 -0.41874
LeftFoot  -14.4397 0.231417 5.34021
LeftToes  1.32783e-010 1.73515e-011 1.59258e-011
552
root  35.1287 38.4533 -3.53568 25.7727 80.6149 31.4297
RightUpLeg  -15.8099 -5.83766 -4.00966
RightLeg  -0.81495 8.4062 -0.46908
RightFoot  -2.71517 -0.706331 9.09791
RightToes  -6.40286e-010 0 -3.6325e-017
Spine  5.78275 0.272604 -3.79848
Spine1  9.07793 0.652204 -2.36008
HEad  -12.3885 0.412284 -0.802664
LeftShoulder1  -0.537 4.90406 -32.2072
LeftArm  12.282 -9.45168 -44.3639
LeftForeArm  20.5914 -18.6691 -5.92228
LeftHand  -0.00934182 7.32096 1.73112
RightShoulder  -0.674042 -5.33929 30.0041
RightArm  16.9484 -22.0177 43.4186
RightForeArm  23.9778 8.43085 7.58641
RightHand  -0.0418138 3.14163 -0.895283
LeftUpLeg  10.4171 6.34934 -7.22048
LeftLeg  10.981 4.15207 -0.643636
LeftFoot  -15.8055 0.290657 5.04181
LeftToes  1.32783e-010 1.73515e-011 1.59258e-011
553
root  36.2165 38.229 -3.45053 27.758 80.8963 34.005
RightUpLeg  -15.1628 -6.00668 -3.91399
RightLeg  -3.37059 4.71115 0.0735583
RightFoot  -2.87754 -0.707032 9.25934
RightToes  -6.40286e-010 0 -3.6325e-017
Spine  6.12266 0.285409 -3.56502
Spine1  9.4063 0.540269 -1.92014
HEad  -10.9378 -0.419644 -1.03218
LeftShoulder1  -0.555272 4.9495 -32.2477
LeftArm  15.0593 -10.3606 -45.1691
LeftForeArm  17.9222 -21.3513 -4.6309
LeftHand  -0.0133021 6.52215 1.95652
RightShoulder  -0.66621 -5.31776 30.0027
RightArm  17.0261 -21.8348 42.9091
RightForeArm  25.0711 8.35673 7.52448
RightHand  0.107093 3.90204 1.57382
LeftUpLeg  12.963 6.581 -7.25014
LeftLeg  10.9493 3.62784 -0.596421
LeftFoot  -17.5983 0.346914 4.40181
LeftToes  1.32783e-010 1.73515e-011 1.59258e-011
554
root  37.3452 37.9574 -3.32959 28.7213 81.0402 34.8464
RightUpLeg  -16.4786 -5.96326 -3.2992
RightLeg  0.66069 -0.350935 0.775927
RightFoot  -1.40671 -0.563988 6.38838
RightToes  -6.40286e-010 0 -3.6325e-017
Spine  5.78049 0.416782 -3.57469
Spine1  9.69075 0.365164 -0.725627
HEad  -10.4918 -0.118549 -1.35505
LeftShoulder1  -0.609656 5.06192 -32.9802
LeftArm  16.4255 -10.6342 -45.2798
LeftForeArm  16.4912 -24.1674 -4.22957
LeftHand  0.00549385 6.92552 3.06031
RightShoulder  -0.68557 -5.37964 29.8405
RightArm  16.9376 -20.4445 42.4389
RightForeArm  28.5825 7.96416 7.37942
RightHand  0.37414 1.67381 6.15097
LeftUpLeg  14.459 6.8894 -7.01096
LeftLeg  11.7505 2.93631 -0.60157
LeftFoot  -19.527 0.419472 4.2163
LeftToes  1.32783e-010 1.73515e-011 1.59258e-011
555
root  38.5534 37.7585 -3.20216 26.9585 81.6455 32.6532
RightUpLeg  -18.2287 -6.57249 -1.97326
RightLeg  6.38993 -2.13566 1.17757
RightFoot  2.07276 -0.161613 1.73069
RightToes  -6.40286e-010 0 -3.6325e-017
Spine  5.17999 0.198969 -2.49267
Spine1  9.8367 0.0007923 0.0759747
HEad  -10.2684 0.74305 -1.43071
LeftShoulder1  -0.620914 5.09565 -32.8479
LeftArm  14.8214 -9.29985 -45.4081
LeftForeArm  18.0582 -26.789 -4.78942
LeftHand  -0.0056276 6.09998 3.6548
RightShoulder  -0.721792 -5.47757 29.8873
RightArm  16.1641 -18.3314 42.1671
RightForeArm  25.4947 7.07595 7.44215
RightHand  0.0891693 3.68464 0.757329
LeftUpLeg  16.0341 7.11993 -6.18412
LeftLeg  12.0414 1.98424 -0.332373
LeftFoot  -20.8416 0.461345 4.03529
LeftToes  1.32783e-010 1.73515e-011 1.59258e-011
556
root  39.8002 37.6928 -3.06585 20.7754 83.121 26.1761
RightUpLeg  -19.3007 -6.62046 -0.233358
RightLeg  10.535 -0.921516 0.842232
RightFoot  6.23151 0.52317 -3.22792
RightToes  -6.40286e-010 0 -3.6325e-017
Spine  5.30684 -0.191887 -0.352391
Spine1  9.26913 -0.678838 1.29386
HEad  -9.69318 1.45856 -2.05652
LeftShoulder1  -0.686456 5.25149 -33.121
LeftArm  13.9093 -7.00173 -45.5223
LeftForeArm  19.9995 -29.0185 -5.1935
LeftHand  -0.0202046 5.66715 3.10725
RightShoulder  -0.801928 -5.69254 29.9987
RightArm  15.1067 -16.2806 41.4266
RightForeArm  25.0031 6.80984 7.02112
RightHand  0.0589977 3.56801 0.511103
LeftUpLeg  17.8099 6.99664 -4.39879
LeftLeg  12.2509 0.571561 0.0523938
LeftFoot  -21.2662 0.394529 3.10334
LeftToes  1.32783e-010 1.73515e-011 1.59258e-011
